<svg xmlns="http://www.w3.org/2000/svg" version="1.1" height="75" width="75">
	<path fill="#ce5c00" d="m 47.528127,64.76902 c 0,5.5384 -4.489745,10.0281 -10.028127,10.0281 -5.538382,0 -10.028127,-4.4897 -10.028127,-10.0281 0,-5.5384 4.489745,-21.7696 10.028127,-21.7696 5.538382,0 10.028127,16.2312 10.028127,21.7696 z" />
	<path fill="#ce5c00" d="m 10.231033,47.52812 c -5.5383805,0 -10.02812591,-4.4897 -10.02812591,-10.0281 0,-5.5385 4.48974541,-10.0282 10.02812591,-10.0282 5.538382,0 21.769585,4.4897 21.769585,10.0282 0,5.5384 -16.231203,10.0281 -21.769585,10.0281 z" />
	<path fill="#ce5c00" d="m 27.471876,10.23103 c 0,-5.53838 4.489714,-10.02812 10.028087,-10.02812 5.538446,0 10.02816,4.48974 10.02816,10.02812 0,5.53838 -4.489714,21.76959 -10.02816,21.76959 -5.538373,0 -10.028087,-16.23121 -10.028087,-21.76959 z" />
	<path fill="#ce5c00" d="m 64.76897,27.47192 c 5.53838,0 10.028123,4.4897 10.028123,10.028 0,5.5385 -4.489743,10.0282 -10.028123,10.0282 -5.53838,0 -21.769583,-4.4897 -21.769583,-10.0282 0,-5.5383 16.231203,-10.028 21.769583,-10.028 z" />
	<circle fill="#75507b" cx="37.5" cy="37.499996" r="3.1779661" />
</svg>
